<?xml version="1.0" encoding="utf-8" ?>
<svg width="250" height="300" xmlns="http://www.w3.org/2000/svg" xmlns:xlink="http://www.w3.org/1999/xlink" xmlns:ev="http://www.w3.org/2001/xml-events" baseProfile="full" version="1.1"><defs /><rect fill="#ffffff" x="0" y="0" width="250" height="300" /><line stroke="#222222" stroke-width="2" x1="30" y1="110.0" x2="212.5" y2="110.0" /><line stroke="#222222" stroke-width="2" x1="30" y1="165.0" x2="212.5" y2="165.0" /><line stroke="#222222" stroke-width="2" x1="30" y1="220.0" x2="212.5" y2="220.0" /><line stroke="#222222" stroke-width="2" x1="30" y1="275.0" x2="212.5" y2="275.0" /><circle fill="#222222" cx="18" cy="192.5" r="3" /><line stroke="#222222" stroke-width="3.0" x1="31.5" y1="45.0" x2="31.5" y2="285.0" /><line stroke="#222222" stroke-width="2.6666666666666665" x1="66.5" y1="45.0" x2="66.5" y2="285.0" /><line stroke="#222222" stroke-width="2.3333333333333335" x1="103.0" y1="45.0" x2="103.0" y2="285.0" /><line stroke="#222222" stroke-width="2.0" x1="139.5" y1="45.0" x2="139.5" y2="285.0" /><line stroke="#222222" stroke-width="1.6666666666666667" x1="176.0" y1="45.0" x2="176.0" y2="285.0" /><line stroke="#222222" stroke-width="1.3333333333333335" x1="211.83333333333334" y1="45.0" x2="211.83333333333334" y2="285.0" /><line stroke="#222222" stroke-width="10" x1="30" y1="50.0" x2="212.5" y2="50.0" /><circle fill="#1464ab" stroke="#222222" stroke-width="2" cx="30.0" cy="137.5" r="14" /><circle fill="#1464ab" stroke="#222222" stroke-width="2" cx="66.5" cy="82.5" r="14" /><circle fill="#1464ab" stroke="#222222" stroke-width="2" cx="103.0" cy="82.5" r="14" /><circle fill="#1464ab" stroke="#222222" stroke-width="2" cx="139.5" cy="82.5" r="14" /><circle fill="#1464ab" stroke="#222222" stroke-width="2" cx="176.0" cy="137.5" r="14" /><circle fill="#1464ab" stroke="#222222" stroke-width="2" cx="212.5" cy="137.5" r="14" /></svg>