<?xml version="1.0" encoding="utf-8" ?>
<svg baseProfile="full" height="300" version="1.1" width="250" xmlns="http://www.w3.org/2000/svg" xmlns:ev="http://www.w3.org/2001/xml-events" xmlns:xlink="http://www.w3.org/1999/xlink"><defs /><rect fill="#ffffff" height="300" width="250" x="0" y="0" /><line stroke="#222222" stroke-width="2" x1="30" x2="212.5" y1="55.0" y2="55.0" /><line stroke="#222222" stroke-width="2" x1="30" x2="212.5" y1="99.0" y2="99.0" /><line stroke="#222222" stroke-width="2" x1="30" x2="212.5" y1="143.0" y2="143.0" /><line stroke="#222222" stroke-width="2" x1="30" x2="212.5" y1="187.0" y2="187.0" /><line stroke="#222222" stroke-width="2" x1="30" x2="212.5" y1="231.0" y2="231.0" /><line stroke="#222222" stroke-width="2" x1="30" x2="212.5" y1="275.0" y2="275.0" /><circle cx="18" cy="77.0" fill="#222222" r="3" /><circle cx="18" cy="165.0" fill="#222222" r="3" /><circle cx="18" cy="253.0" fill="#222222" r="3" /><text fill="#444444" font-family="Ubuntu" font-size="20" font-style="italic" font-weight="bold" text-anchor="start" x="215.5" y="59.0">2fr</text><line stroke="#222222" stroke-width="3.0" x1="31.5" x2="31.5" y1="45.0" y2="285.0" /><line stroke="#222222" stroke-width="2.5" x1="90.83333333333334" x2="90.83333333333334" y1="45.0" y2="285.0" /><line stroke="#222222" stroke-width="2.0" x1="151.66666666666669" x2="151.66666666666669" y1="45.0" y2="285.0" /><line stroke="#222222" stroke-width="1.5" x1="211.75" x2="211.75" y1="45.0" y2="285.0" /><circle cx="30.0" cy="165.0" fill="#1464ab" r="14" stroke="#222222" stroke-width="2" /><circle cx="90.83333333333334" cy="165.0" fill="#1464ab" r="14" stroke="#222222" stroke-width="2" /><circle cx="151.66666666666669" cy="77.0" fill="#1464ab" r="14" stroke="#222222" stroke-width="2" /><circle cx="212.5" cy="121.0" fill="#1464ab" r="14" stroke="#222222" stroke-width="2" /></svg>