<?xml version="1.0" encoding="utf-8" ?>
<svg width="250" height="300" xmlns="http://www.w3.org/2000/svg" xmlns:xlink="http://www.w3.org/1999/xlink" xmlns:ev="http://www.w3.org/2001/xml-events" baseProfile="full" version="1.1"><defs /><rect fill="#ffffff" x="0" y="0" width="250" height="300" /><line stroke="#222222" stroke-width="2" x1="30" y1="55.0" x2="212.5" y2="55.0" /><line stroke="#222222" stroke-width="2" x1="30" y1="99.0" x2="212.5" y2="99.0" /><line stroke="#222222" stroke-width="2" x1="30" y1="143.0" x2="212.5" y2="143.0" /><line stroke="#222222" stroke-width="2" x1="30" y1="187.0" x2="212.5" y2="187.0" /><line stroke="#222222" stroke-width="2" x1="30" y1="231.0" x2="212.5" y2="231.0" /><line stroke="#222222" stroke-width="2" x1="30" y1="275.0" x2="212.5" y2="275.0" /><circle fill="#222222" cx="18" cy="77.0" r="3" /><circle fill="#222222" cx="18" cy="165.0" r="3" /><text font-family="Ubuntu" font-size="20" font-style="italic" font-weight="bold" fill="#444444" text-anchor="start" x="215.5" y="59.0">4fr</text><line stroke="#222222" stroke-width="3.0" x1="31.5" y1="45.0" x2="31.5" y2="285.0" /><line stroke="#222222" stroke-width="2.5" x1="90.83333333333334" y1="45.0" x2="90.83333333333334" y2="285.0" /><line stroke="#222222" stroke-width="2.0" x1="151.66666666666669" y1="45.0" x2="151.66666666666669" y2="285.0" /><line stroke="#222222" stroke-width="1.5" x1="211.75" y1="45.0" x2="211.75" y2="285.0" /><circle fill="#1464ab" stroke="#222222" stroke-width="2" cx="30.0" cy="77.0" r="14" /><circle fill="#1464ab" stroke="#222222" stroke-width="2" cx="90.83333333333334" cy="209.0" r="14" /><circle fill="#1464ab" stroke="#222222" stroke-width="2" cx="151.66666666666669" cy="209.0" r="14" /><circle fill="#1464ab" stroke="#222222" stroke-width="2" cx="212.5" cy="209.0" r="14" /></svg>